<?xml version="1.0" encoding="UTF-8"?>
<svg width="22px" height="22px" viewBox="0 0 22 22" version="1.1" xmlns="http://www.w3.org/2000/svg" xmlns:xlink="http://www.w3.org/1999/xlink">
    <!-- Generator: Sketch 46.2 (44496) - http://www.bohemiancoding.com/sketch -->
    <title>Fill 1</title>
    <desc>Created with Sketch.</desc>
    <defs></defs>
    <g id="Symbols" stroke="none" stroke-width="1" fill="none" fill-rule="evenodd">
        <g id="FOOTER" transform="translate(-120.000000, -273.000000)" fill="#808285">
            <path d="M139.670152,291.560039 C139.670152,292.171451 139.171451,292.670152 138.560039,292.670152 L123.439961,292.670152 C122.827005,292.670152 122.331392,292.171451 122.331392,291.560039 L122.331392,282.412029 L124.502211,282.412029 C124.378693,282.921538 124.313847,283.452663 124.313847,284.000772 C124.313847,287.693943 127.306057,290.687697 130.999228,290.687697 C134.693943,290.687697 137.686153,287.693943 137.686153,284.000772 C137.686153,283.452663 137.621307,282.921538 137.496245,282.412029 L139.670152,282.412029 L139.670152,291.560039 Z M126.944768,282.412029 C127.579339,280.792406 129.157274,279.643694 130.999228,279.643694 C132.842726,279.643694 134.420661,280.792406 135.055232,282.412029 C135.249772,282.904555 135.356306,283.440312 135.356306,284.000772 C135.356306,286.401642 133.401642,288.356306 130.999228,288.356306 C128.598358,288.356306 126.643694,286.401642 126.643694,284.000772 C126.643694,283.440312 126.750228,282.904555 126.944768,282.412029 L126.944768,282.412029 Z M135.709874,276.033897 C135.709874,275.695768 135.984701,275.420942 136.324374,275.420942 L138.979999,275.420942 C139.318128,275.420942 139.594498,275.695768 139.594498,276.033897 L139.594498,278.691066 C139.594498,279.029195 139.318128,279.304021 138.979999,279.304021 L136.324374,279.304021 C135.984701,279.304021 135.709874,279.029195 135.709874,278.691066 L135.709874,276.033897 Z M138.560039,273 L123.439961,273 C121.54088,273 120,274.54088 120,276.439961 L120,291.560039 C120,293.45912 121.54088,295 123.439961,295 L138.560039,295 C140.460664,295 142,293.45912 142,291.560039 L142,276.439961 C142,274.54088 140.460664,273 138.560039,273 L138.560039,273 Z" id="Fill-1"></path>
        </g>
    </g>
</svg>